<svg width="25" height="25" viewBox="0 0 25 25" fill="none" xmlns="http://www.w3.org/2000/svg">
<path d="M24.9933 12.3654C24.9933 18.5146 20.4807 23.6224 14.5794 24.515L14.5794 15.9359L17.4557 15.9359L18.0012 12.3654L14.5794 12.3654L14.5794 10.0843C14.5794 9.09251 15.0753 8.1503 16.6126 8.1503L18.1499 8.1503L18.1499 5.12531C18.1499 5.12531 16.7614 4.87736 15.3729 4.87736C12.5959 4.87736 10.761 6.61301 10.761 9.68759L10.761 12.3654L7.63685 12.3654L7.63685 15.9359L10.761 15.9359L10.761 24.515C4.85982 23.6224 0.39672 18.5146 0.39672 12.3654C0.39672 5.57162 5.90121 0.0671339 12.695 0.0671339C19.4889 0.0671339 24.9933 5.57162 24.9933 12.3654Z" fill="black"/>
</svg>
