<svg width="23" height="23" viewBox="0 0 23 23" fill="none" xmlns="http://www.w3.org/2000/svg">
<path d="M22.4 22.4V14.196C22.4 10.164 21.532 7.084 16.828 7.084C14.56 7.084 13.048 8.316 12.432 9.492H12.376V7.448H7.924V22.4H12.572V14.98C12.572 13.02 12.936 11.144 15.344 11.144C17.724 11.144 17.752 13.356 17.752 15.092V22.372H22.4V22.4ZM0.364 7.448H5.012V22.4H0.364V7.448ZM2.688 0C1.204 0 0 1.204 0 2.688C0 4.172 1.204 5.404 2.688 5.404C4.172 5.404 5.376 4.172 5.376 2.688C5.376 1.204 4.172 0 2.688 0Z" fill="black"/>
</svg>
