<svg width="21" height="20" viewBox="0 0 21 20" fill="none" xmlns="http://www.w3.org/2000/svg">
<g clip-path="url(#clip0_1_470)">
<path d="M18.25 1.0625H1.75C1.56766 1.0625 1.3928 1.13493 1.26386 1.26386C1.13493 1.3928 1.0625 1.56766 1.0625 1.75V4.5C1.06405 5.03153 1.18935 5.5554 1.42849 6.0301C1.66763 6.5048 2.01403 6.91728 2.44025 7.23487C2.44025 7.24037 2.4375 7.2445 2.4375 7.25V16.875C2.4375 17.422 2.6548 17.9466 3.04159 18.3334C3.42839 18.7202 3.95299 18.9375 4.5 18.9375H15.5C16.047 18.9375 16.5716 18.7202 16.9584 18.3334C17.3452 17.9466 17.5625 17.422 17.5625 16.875V10C17.5625 9.81766 17.4901 9.6428 17.3611 9.51386C17.2322 9.38493 17.0573 9.3125 16.875 9.3125C16.6927 9.3125 16.5178 9.38493 16.3889 9.51386C16.2599 9.6428 16.1875 9.81766 16.1875 10V16.875C16.1875 17.0573 16.1151 17.2322 15.9861 17.3611C15.8572 17.4901 15.6823 17.5625 15.5 17.5625H4.5C4.31766 17.5625 4.1428 17.4901 4.01386 17.3611C3.88493 17.2322 3.8125 17.0573 3.8125 16.875V7.86806C4.45238 7.99919 5.11645 7.94386 5.7258 7.70865C6.33516 7.47344 6.86418 7.06824 7.25 6.54119C7.56627 6.97378 7.98013 7.32566 8.45797 7.56824C8.9358 7.81081 9.46412 7.93724 10 7.93724C10.5359 7.93724 11.0642 7.81081 11.542 7.56824C12.0199 7.32566 12.4337 6.97378 12.75 6.54119C13.1784 7.12335 13.7799 7.55517 14.4685 7.77489C15.1571 7.99461 15.8976 7.99099 16.584 7.76454C17.2704 7.5381 17.8677 7.10043 18.2904 6.5141C18.7131 5.92777 18.9396 5.22281 18.9375 4.5V1.75C18.9375 1.56766 18.8651 1.3928 18.7361 1.26386C18.6072 1.13493 18.4323 1.0625 18.25 1.0625ZM4.5 6.5625C3.95316 6.56195 3.42887 6.34448 3.0422 5.9578C2.65552 5.57113 2.43805 5.04684 2.4375 4.5V2.4375H6.5625V4.5C6.56195 5.04684 6.34448 5.57113 5.9578 5.9578C5.57113 6.34448 5.04684 6.56195 4.5 6.5625ZM10 6.5625C9.45316 6.56195 8.92887 6.34448 8.54219 5.9578C8.15552 5.57113 7.93805 5.04684 7.9375 4.5V2.4375H12.0625V4.5C12.062 5.04684 11.8445 5.57113 11.4578 5.9578C11.0711 6.34448 10.5468 6.56195 10 6.5625ZM17.5625 4.5C17.5625 5.04701 17.3452 5.57161 16.9584 5.95841C16.5716 6.3452 16.047 6.5625 15.5 6.5625C14.953 6.5625 14.4284 6.3452 14.0416 5.95841C13.6548 5.57161 13.4375 5.04701 13.4375 4.5V2.4375H17.5625V4.5Z" fill="#121211"/>
<path d="M10 16.1875C10.1823 16.1875 10.3572 16.1151 10.4861 15.9861C10.6151 15.8572 10.6875 15.6823 10.6875 15.5V13.4375H12.75C12.9323 13.4375 13.1072 13.3651 13.2361 13.2361C13.3651 13.1072 13.4375 12.9323 13.4375 12.75C13.4375 12.5677 13.3651 12.3928 13.2361 12.2639C13.1072 12.1349 12.9323 12.0625 12.75 12.0625H10.6875V10C10.6875 9.81766 10.6151 9.6428 10.4861 9.51386C10.3572 9.38493 10.1823 9.3125 10 9.3125C9.81766 9.3125 9.6428 9.38493 9.51386 9.51386C9.38493 9.6428 9.3125 9.81766 9.3125 10V12.0625H7.25C7.06766 12.0625 6.8928 12.1349 6.76386 12.2639C6.63493 12.3928 6.5625 12.5677 6.5625 12.75C6.5625 12.9323 6.63493 13.1072 6.76386 13.2361C6.8928 13.3651 7.06766 13.4375 7.25 13.4375H9.3125V15.5C9.3125 15.6823 9.38493 15.8572 9.51386 15.9861C9.6428 16.1151 9.81766 16.1875 10 16.1875Z" fill="#121211"/>
</g>
<defs>
<clipPath id="clip0_1_470">
<rect width="20" height="20" fill="white" transform="translate(0.5)"/>
</clipPath>
</defs>
</svg>
