<svg width="100" height="100" viewBox="0 0 100 100" fill="none" xmlns="http://www.w3.org/2000/svg">
<path d="M10.5048 46.3164C10.4149 46.6723 10.2177 46.998 9.93575 47.2563C9.65377 47.5147 9.29827 47.6952 8.90978 47.7774L5.71012 48.4538C5.65066 48.4655 5.59729 48.4955 5.55909 48.5389C5.52081 48.5823 5.5 48.6364 5.5 48.6922C5.5 48.748 5.52081 48.802 5.55909 48.8454C5.59729 48.8888 5.65066 48.9189 5.71012 48.9306L8.90606 49.6069C9.29463 49.689 9.6502 49.8695 9.93226 50.1278C10.2142 50.3862 10.4114 50.712 10.5011 51.068L11.2391 53.9969C11.2519 54.0514 11.2847 54.1003 11.332 54.1353C11.3794 54.1704 11.4384 54.1895 11.4992 54.1895C11.5601 54.1895 11.6191 54.1704 11.6665 54.1353C11.7138 54.1003 11.7466 54.0514 11.7594 53.9969L12.4974 51.068C12.5869 50.7115 12.7841 50.3852 13.0664 50.1267C13.3488 49.868 13.7048 49.6875 14.0939 49.6056L17.2899 48.9292C17.3493 48.9175 17.4027 48.8875 17.4409 48.8441C17.4791 48.8007 17.5 48.7466 17.5 48.6908C17.5 48.635 17.4791 48.5809 17.4409 48.5376C17.4027 48.4942 17.3493 48.4641 17.2899 48.4524L14.0939 47.776C13.7054 47.694 13.35 47.5135 13.0681 47.2551C12.7862 46.9968 12.5892 46.671 12.4996 46.315L11.7609 43.382C11.7481 43.3275 11.7153 43.2786 11.668 43.2436C11.6206 43.2085 11.5616 43.1895 11.5007 43.1895C11.4399 43.1895 11.3808 43.2085 11.3335 43.2436C11.2862 43.2786 11.2534 43.3275 11.2406 43.382L10.5048 46.3164Z" fill="url(#paint0_linear_1_303)"/>
<path d="M28.4928 14.1675C28.6276 13.6174 28.9234 13.114 29.3464 12.7148C29.7694 12.3155 30.3026 12.0366 30.8853 11.9095L35.6848 10.8642C35.774 10.8461 35.8541 10.7997 35.9114 10.7326C35.9688 10.6656 36 10.582 36 10.4958C36 10.4096 35.9688 10.326 35.9114 10.2589C35.8541 10.1919 35.774 10.1455 35.6848 10.1274L30.8909 9.08205C30.3081 8.95521 29.7747 8.67635 29.3516 8.27708C28.9286 7.8778 28.633 7.3743 28.4984 6.82407L27.3913 2.29759C27.3722 2.21338 27.323 2.13779 27.252 2.08369C27.181 2.02947 27.0925 2 27.0011 2C26.9098 2 26.8213 2.02947 26.7503 2.08369C26.6793 2.13779 26.6301 2.21338 26.6109 2.29759L25.5039 6.82407C25.3696 7.37504 25.0739 7.87927 24.6503 8.27886C24.2268 8.67856 23.6928 8.95763 23.1091 9.08416L18.3152 10.1295C18.226 10.1476 18.146 10.194 18.0887 10.261C18.0313 10.3281 18 10.4117 18 10.4979C18 10.5841 18.0313 10.6677 18.0887 10.7347C18.146 10.8018 18.226 10.8482 18.3152 10.8663L23.1091 11.9116C23.6919 12.0385 24.225 12.3174 24.6479 12.7167C25.0708 13.116 25.3662 13.6194 25.5005 14.1696L26.6087 18.7024C26.6279 18.7866 26.6771 18.8622 26.7481 18.9163C26.8191 18.9705 26.9076 19 26.9989 19C27.0902 19 27.1787 18.9705 27.2498 18.9163C27.3208 18.8622 27.3699 18.7866 27.3891 18.7024L28.4928 14.1675Z" fill="url(#paint1_linear_1_303)"/>
<path d="M87.6954 62.1611C88.1161 62.2659 88.5011 62.496 88.8063 62.825C89.1116 63.1539 89.325 63.5687 89.4221 64.0219L90.2215 67.7549C90.2353 67.8242 90.2708 67.8865 90.3221 67.9311C90.3734 67.9757 90.4373 68 90.5032 68C90.5691 68 90.6331 67.9757 90.6843 67.9311C90.7356 67.8865 90.7711 67.8242 90.785 67.7549L91.5843 64.0263C91.6813 63.5729 91.8946 63.1581 92.1999 62.829C92.5052 62.5 92.8902 62.2701 93.311 62.1654L96.7724 61.3044C96.8368 61.2895 96.8946 61.2512 96.936 61.196C96.9775 61.1408 97 61.0719 97 61.0009C97 60.9299 96.9775 60.861 96.936 60.8058C96.8946 60.7506 96.8368 60.7123 96.7724 60.6974L93.311 59.8363C92.8897 59.7319 92.5041 59.5019 92.1985 59.1725C91.8929 58.8431 91.6795 58.4277 91.5827 57.9738L90.7834 54.2452C90.7695 54.1758 90.734 54.1136 90.6827 54.069C90.6315 54.0243 90.5675 54 90.5016 54C90.4357 54 90.3718 54.0243 90.3205 54.069C90.2692 54.1136 90.2337 54.1758 90.2199 54.2452L89.4205 57.9738C89.3235 58.427 89.1102 58.8417 88.8049 59.1706C88.4995 59.4995 88.1146 59.7293 87.6938 59.8337L84.2276 60.6957C84.1632 60.7106 84.1054 60.7488 84.064 60.8041C84.0225 60.8593 84 60.9281 84 60.9992C84 61.0702 84.0225 61.139 84.064 61.1943C84.1054 61.2495 84.1632 61.2877 84.2276 61.3026L87.6954 62.1611Z" fill="url(#paint2_linear_1_303)"/>
<path d="M17.5381 76.3117L17.8177 76.6625L18.1967 76.4223C22.7842 73.5144 29.9434 68.7673 35.9574 62.3352C41.9705 55.9042 46.8831 47.7408 46.8831 38.0046C46.8831 32.4356 44.9666 28.5416 42.1642 26.045C39.3733 23.5588 35.7508 22.5 32.3971 22.5C24.9347 22.5 18.3936 28.0026 18.3936 35.5845C18.3936 39.0753 19.3604 41.4318 20.8166 43.1662C22.2557 44.8804 24.1447 45.9484 25.8855 46.9123C25.9294 46.9366 25.9731 46.9608 26.0168 46.985C27.7384 47.9378 29.2757 48.7886 30.3061 50.0573C31.328 51.3152 31.8847 53.0363 31.4227 55.8252C30.2573 61.8922 24.8819 67.3579 15.7323 73.1576L15.2617 73.4559L15.609 73.8916L17.5381 76.3117ZM55.1552 76.3117L55.4348 76.6625L55.8138 76.4223C60.4013 73.5144 67.5605 68.7673 73.5745 62.3352C79.5875 55.9042 84.5 47.7408 84.5 38.0046C84.5 32.4356 82.5836 28.5416 79.7812 26.045C76.9904 23.5588 73.3679 22.5 70.0142 22.5C62.5518 22.5 56.0106 28.0026 56.0106 35.5845C56.0106 39.0753 56.9774 41.4318 58.4335 43.1662C59.8727 44.8804 61.7617 45.9484 63.5024 46.9123C63.5463 46.9366 63.5901 46.9608 63.6337 46.985C65.3554 47.9378 66.8926 48.7887 67.9231 50.0573C68.9449 51.3152 69.5016 53.0363 69.0397 55.8252C67.8743 61.8922 62.499 67.3579 53.3494 73.1576L52.8788 73.4559L53.2261 73.8916L55.1552 76.3117Z" stroke="black"/>
<defs>
<linearGradient id="paint0_linear_1_303" x1="17.5" y1="48.2142" x2="5.5" y2="48.2142" gradientUnits="userSpaceOnUse">
<stop offset="0.0729167" stop-color="#E3A455"/>
<stop offset="0.244792" stop-color="#F6DBA6"/>
<stop offset="0.434957" stop-color="#FFEBC4"/>
<stop offset="0.532623" stop-color="#F0BE79"/>
<stop offset="0.682292" stop-color="#8F653B"/>
<stop offset="0.838542" stop-color="#BA7F3B"/>
<stop offset="1" stop-color="#EEBC70"/>
</linearGradient>
<linearGradient id="paint1_linear_1_303" x1="18" y1="11.2344" x2="36" y2="11.2344" gradientUnits="userSpaceOnUse">
<stop offset="0.0729167" stop-color="#E3A455"/>
<stop offset="0.244792" stop-color="#F6DBA6"/>
<stop offset="0.434957" stop-color="#FFEBC4"/>
<stop offset="0.532623" stop-color="#F0BE79"/>
<stop offset="0.682292" stop-color="#8F653B"/>
<stop offset="0.838542" stop-color="#BA7F3B"/>
<stop offset="1" stop-color="#EEBC70"/>
</linearGradient>
<linearGradient id="paint2_linear_1_303" x1="89.9384" y1="54" x2="89.9384" y2="68" gradientUnits="userSpaceOnUse">
<stop offset="0.0729167" stop-color="#E3A455"/>
<stop offset="0.244792" stop-color="#F6DBA6"/>
<stop offset="0.434957" stop-color="#FFEBC4"/>
<stop offset="0.532623" stop-color="#F0BE79"/>
<stop offset="0.682292" stop-color="#8F653B"/>
<stop offset="0.838542" stop-color="#BA7F3B"/>
<stop offset="1" stop-color="#EEBC70"/>
</linearGradient>
</defs>
</svg>
