<svg width="26" height="22" viewBox="0 0 26 22" fill="none" xmlns="http://www.w3.org/2000/svg">
<path d="M23.002 5.86043C23.002 6.10838 23.002 6.30674 23.002 6.55469C23.002 13.4477 17.7951 21.3325 8.22422 21.3325C5.24882 21.3325 2.52137 20.4895 0.240234 19.0018C0.636954 19.0514 1.03367 19.101 1.47998 19.101C3.90989 19.101 6.14144 18.2579 7.92668 16.8694C5.64554 16.8198 3.71153 15.3321 3.06686 13.2493C3.41399 13.2989 3.71153 13.3485 4.05866 13.3485C4.50497 13.3485 5.00087 13.2493 5.39759 13.1502C3.01727 12.6543 1.23203 10.5715 1.23203 8.04239L1.23203 7.9928C1.92629 8.38952 2.76932 8.58788 3.61235 8.63747C2.17424 7.69526 1.28162 6.10838 1.28162 4.32314C1.28162 3.33134 1.52957 2.43873 1.97588 1.69488C4.55456 4.81904 8.42258 6.90182 12.7369 7.14977C12.6377 6.75305 12.5881 6.35633 12.5881 5.95961C12.5881 3.08339 14.9189 0.752666 17.7951 0.752666C19.2828 0.752666 20.6217 1.34775 21.6135 2.38914C22.7541 2.14119 23.8946 1.69488 24.8864 1.0998C24.4897 2.33955 23.6963 3.33134 22.6053 3.97601C23.6467 3.87683 24.6881 3.57929 25.5807 3.18257C24.8864 4.22396 23.9938 5.11658 23.002 5.86043Z" fill="black"/>
</svg>
