<svg width="26" height="27" viewBox="0 0 26 27" fill="none" xmlns="http://www.w3.org/2000/svg">
<path d="M13 0.5C10.4288 0.5 7.91543 1.26244 5.77759 2.69089C3.63975 4.11935 1.97351 6.14967 0.989572 8.52511C0.0056327 10.9006 -0.251811 13.5144 0.249797 16.0362C0.751405 18.5579 1.98953 20.8743 3.80762 22.6924C5.6257 24.5105 7.94208 25.7486 10.4638 26.2502C12.9856 26.7518 15.5994 26.4944 17.9749 25.5104C20.3503 24.5265 22.3806 22.8602 23.8091 20.7224C25.2376 18.5846 26 16.0712 26 13.5C25.996 10.0534 24.6251 6.74912 22.188 4.31201C19.7509 1.8749 16.4466 0.503984 13 0.5ZM17.1689 14.2432L12.1689 18.7432C12.0714 18.8311 11.9574 18.8989 11.8336 18.9428C11.7098 18.9867 11.5786 19.0057 11.4474 18.9988C11.3162 18.992 11.1877 18.9593 11.0691 18.9028C10.9506 18.8462 10.8444 18.7669 10.7565 18.6693C10.6686 18.5716 10.6008 18.4577 10.557 18.3338C10.5132 18.21 10.4942 18.0788 10.5011 17.9476C10.5081 17.8164 10.5408 17.6879 10.5974 17.5694C10.654 17.4509 10.7334 17.3447 10.8311 17.2568L15.0049 13.5L10.8311 9.74316C10.6341 9.56571 10.5157 9.3173 10.5018 9.05256C10.488 8.78782 10.5798 8.52842 10.7572 8.33138C10.9346 8.13434 11.1829 8.01581 11.4476 8.00183C11.7124 7.98785 11.9718 8.07957 12.1689 8.25683L17.1689 12.7568C17.2731 12.8506 17.3565 12.9652 17.4135 13.0932C17.4705 13.2212 17.5 13.3598 17.5 13.5C17.5 13.6402 17.4705 13.7787 17.4135 13.9068C17.3565 14.0348 17.2731 14.1494 17.1689 14.2432Z" fill="white"/>
</svg>
