<svg width="100" height="100" viewBox="0 0 100 100" fill="none" xmlns="http://www.w3.org/2000/svg">
<g clip-path="url(#clip0_1_276)">
<path d="M17.0757 16.7614C17.1983 16.2294 17.468 15.7425 17.854 15.3563C18.24 14.9702 18.7267 14.7003 19.2587 14.5774L23.6407 13.5664C23.7212 13.5481 23.7931 13.5031 23.8447 13.4386C23.8962 13.3741 23.9243 13.294 23.9243 13.2114C23.9243 13.1288 23.8962 13.0487 23.8447 12.9842C23.7931 12.9197 23.7212 12.8746 23.6407 12.8564L19.2587 11.8454C18.7268 11.7225 18.24 11.4528 17.8539 11.0668C17.4678 10.6809 17.1978 10.1943 17.0747 9.66236L16.0637 5.28236C16.045 5.20233 15.9999 5.13097 15.9355 5.07988C15.8711 5.02879 15.7914 5.00098 15.7092 5.00098C15.627 5.00098 15.5473 5.02879 15.4829 5.07988C15.4185 5.13097 15.3734 5.20233 15.3547 5.28236L14.3437 9.66236C14.221 10.1946 13.9512 10.6815 13.565 11.0677C13.1788 11.4538 12.6919 11.7237 12.1597 11.8464L7.77965 12.8564C7.69913 12.8746 7.62721 12.9197 7.57568 12.9842C7.52416 13.0487 7.49609 13.1288 7.49609 13.2114C7.49609 13.294 7.52416 13.3741 7.57568 13.4386C7.62721 13.5031 7.69913 13.5481 7.77965 13.5664L12.1597 14.5774C12.6918 14.7002 13.1787 14.9701 13.5649 15.3562C13.951 15.7424 14.2209 16.2293 14.3437 16.7614L15.3547 21.1434C15.3734 21.2234 15.4185 21.2948 15.4829 21.3459C15.5473 21.397 15.627 21.4248 15.7092 21.4248C15.7914 21.4248 15.8711 21.397 15.9355 21.3459C15.9999 21.2948 16.045 21.2234 16.0637 21.1434L17.0757 16.7614Z" fill="url(#paint0_linear_1_276)"/>
<path d="M85.9576 31.6165L87.1006 35.0455C87.122 35.1096 87.163 35.1654 87.2178 35.2049C87.2727 35.2445 87.3385 35.2657 87.4061 35.2657C87.4737 35.2657 87.5396 35.2445 87.5944 35.2049C87.6493 35.1654 87.6903 35.1096 87.7116 35.0455L88.6516 32.2275C88.7147 32.0378 88.8211 31.8653 88.9624 31.7238C89.1037 31.5824 89.276 31.4758 89.4656 31.4125L92.2836 30.4735C92.3478 30.4521 92.4035 30.4111 92.4431 30.3563C92.4826 30.3015 92.5039 30.2356 92.5039 30.168C92.5039 30.1004 92.4826 30.0345 92.4431 29.9797C92.4035 29.9249 92.3478 29.8839 92.2836 29.8625L89.4656 28.9235C89.276 28.8602 89.1037 28.7536 88.9624 28.6121C88.8211 28.4707 88.7147 28.2982 88.6516 28.1085L87.7116 25.2895C87.6903 25.2254 87.6493 25.1696 87.5944 25.1301C87.5396 25.0905 87.4737 25.0693 87.4061 25.0693C87.3385 25.0693 87.2727 25.0905 87.2178 25.1301C87.163 25.1696 87.122 25.2254 87.1006 25.2895L86.1616 28.1085C86.0982 28.2982 85.9916 28.4706 85.8501 28.612C85.7087 28.7534 85.5363 28.8601 85.3466 28.9235L82.5266 29.8625C82.4625 29.8839 82.4067 29.9249 82.3672 29.9797C82.3277 30.0345 82.3064 30.1004 82.3064 30.168C82.3064 30.2356 82.3277 30.3015 82.3672 30.3563C82.4067 30.4111 82.4625 30.4521 82.5266 30.4735L85.9576 31.6165Z" fill="url(#paint1_linear_1_276)"/>
<path d="M19.3541 64.1578L15.9261 65.3008C15.862 65.3222 15.8062 65.3632 15.7667 65.418C15.7271 65.4728 15.7059 65.5387 15.7059 65.6063C15.7059 65.6739 15.7271 65.7398 15.7667 65.7946C15.8062 65.8494 15.862 65.8905 15.9261 65.9118L18.7441 66.8508C18.9336 66.9141 19.1058 67.0205 19.2471 67.1618C19.3884 67.3031 19.4948 67.4753 19.5581 67.6648L20.4981 70.4828C20.5195 70.5469 20.5605 70.6027 20.6153 70.6423C20.6701 70.6818 20.736 70.7031 20.8036 70.7031C20.8712 70.7031 20.9371 70.6818 20.9919 70.6423C21.0467 70.6027 21.0877 70.5469 21.1091 70.4828L22.0481 67.6658C22.1111 67.4761 22.2175 67.3036 22.3588 67.1622C22.5001 67.0207 22.6724 66.9141 22.8621 66.8508L25.6821 65.9118C25.7462 65.8905 25.802 65.8494 25.8415 65.7946C25.8811 65.7398 25.9023 65.6739 25.9023 65.6063C25.9023 65.5387 25.8811 65.4728 25.8415 65.418C25.802 65.3632 25.7462 65.3222 25.6821 65.3008L22.8631 64.3608C22.6734 64.2978 22.5009 64.1914 22.3595 64.0501C22.218 63.9088 22.1114 63.7365 22.0481 63.5468L21.1091 60.7268C21.0877 60.6627 21.0467 60.6069 20.9919 60.5674C20.9371 60.5278 20.8712 60.5066 20.8036 60.5066C20.736 60.5066 20.6701 60.5278 20.6153 60.5674C20.5605 60.6069 20.5195 60.6627 20.4981 60.7268L19.3541 64.1578Z" fill="url(#paint2_linear_1_276)"/>
<g clip-path="url(#clip1_1_276)">
<path fill-rule="evenodd" clip-rule="evenodd" d="M71.2425 40.6993H52.3741C51.8049 40.6993 51.3461 40.2394 51.3461 39.6719C51.3464 39.1041 51.8046 38.6442 52.3737 38.6442L71.2426 38.644C71.8119 38.644 72.2701 39.1043 72.2701 39.6719C72.2703 40.2393 71.8115 40.6995 71.2425 40.6993ZM38.8665 59.3913C38.6915 59.3913 38.5147 59.3474 38.3542 59.2539C37.8618 58.9698 37.6941 58.3415 37.9777 57.8499L47.4125 41.5082C47.6959 41.0168 48.3239 40.8482 48.8162 41.1322C49.3072 41.4158 49.4763 42.0447 49.1926 42.536L39.7585 58.8775C39.5674 59.207 39.2213 59.3916 38.8665 59.3913ZM84.7502 59.3913C84.3953 59.3913 84.0488 59.2073 83.858 58.8776L74.4236 42.5359C74.1402 42.0445 74.3094 41.4161 74.8 41.1322C75.2927 40.8482 75.9204 41.017 76.2041 41.5086L85.6386 57.8497C85.9224 58.341 85.7544 58.9699 85.2621 59.2537C85.0998 59.347 84.923 59.3916 84.7502 59.3913ZM48.3024 80.4336C47.9476 80.4336 47.6031 80.2497 47.4121 79.92L37.9778 63.5786C37.6944 63.0869 37.8618 62.4586 38.3543 62.1749C38.8469 61.8906 39.4746 62.0596 39.7583 62.5509L49.1928 78.8921C49.4766 79.3835 49.3069 80.0124 48.8162 80.2961C48.6541 80.3894 48.4773 80.434 48.3024 80.4336ZM75.3122 80.4336C75.1392 80.4336 74.9622 80.3896 74.7999 80.2962C74.3094 80.0121 74.1398 79.3839 74.4235 78.8924L83.8581 62.5509C84.1415 62.0596 84.7713 61.8907 85.262 62.1749C85.7545 62.4583 85.9221 63.0871 85.6384 63.5786L76.2042 79.9197C76.0135 80.2493 75.6688 80.434 75.3122 80.4336ZM71.2425 82.784H52.3741C51.8049 82.784 51.3461 82.3243 51.3461 81.7565C51.3464 81.1887 51.8046 80.729 52.3737 80.729L71.2426 80.7287C71.8119 80.7287 72.2702 81.189 72.2702 81.7565C72.2703 82.3239 71.8115 82.7842 71.2425 82.784Z" fill="#121211"/>
<path fill-rule="evenodd" clip-rule="evenodd" d="M49.6582 37.9857C48.729 37.9857 47.9721 38.7421 47.9721 39.6718C47.9722 40.6014 48.7286 41.3578 49.6582 41.3578C50.5896 41.3576 51.3459 40.6015 51.3459 39.6718C51.3462 38.7419 50.5895 37.9858 49.6582 37.9857ZM49.6582 43.4129C47.5957 43.4129 45.9168 41.7347 45.9168 39.6718C45.917 37.6087 47.5957 35.9305 49.6582 35.9305C51.7223 35.9304 53.4012 37.6089 53.4012 39.6718C53.4015 41.7346 51.7223 43.4131 49.6582 43.4129ZM73.956 37.9857C73.0267 37.9857 72.2699 38.7421 72.2699 39.6718C72.27 40.6014 73.0263 41.3578 73.9558 41.3578C74.8857 41.3576 75.6418 40.6015 75.6418 39.6718C75.6419 38.7419 74.8854 37.9858 73.956 37.9857ZM73.956 43.4129C71.8935 43.4129 70.2146 41.7347 70.2146 39.6718C70.2147 37.6087 71.8935 35.9305 73.9558 35.9305C76.0201 35.9304 77.6971 37.6089 77.6971 39.6718C77.6972 41.7346 76.02 43.4131 73.956 43.4129ZM86.1059 59.028C85.1762 59.028 84.4196 59.7845 84.4196 60.7142C84.4199 61.6437 85.176 62.4003 86.1056 62.4003C87.0351 62.4 87.7916 61.6439 87.7916 60.7142C87.7918 59.7843 87.0351 59.0282 86.1059 59.028ZM86.1059 64.4553C84.0434 64.4553 82.3643 62.7771 82.3643 60.7142C82.3646 58.6511 84.0431 56.9729 86.1056 56.9729C88.168 56.9727 89.8469 58.6513 89.8469 60.7142C89.8471 62.7769 88.168 64.4555 86.1059 64.4553ZM37.5103 59.028C36.5806 59.028 35.8241 59.7845 35.8241 60.7142C35.8244 61.6437 36.5806 62.4003 37.5101 62.4003C38.4396 62.4 39.1961 61.6439 39.1961 60.7142C39.1963 59.7843 38.4396 59.0282 37.5103 59.028ZM37.5103 64.4553C35.4478 64.4553 33.7688 62.7771 33.7688 60.7142C33.7691 58.6511 35.4477 56.9729 37.5101 56.9729C39.5729 56.9727 41.2514 58.6513 41.2514 60.7142C41.2516 62.7769 39.5725 64.4555 37.5103 64.4553ZM49.6582 80.0703C48.729 80.0703 47.9721 80.827 47.9721 81.7565C47.9722 82.686 48.7286 83.4427 49.6582 83.4427C50.5896 83.4427 51.3459 82.6862 51.3459 81.7565C51.3462 80.827 50.5895 80.0706 49.6582 80.0703ZM49.6582 85.4976C47.5957 85.4976 45.9168 83.8195 45.9168 81.7565C45.917 79.6934 47.5957 78.0152 49.6582 78.0152C51.7223 78.015 53.4012 79.6935 53.4012 81.7565C53.4015 83.8192 51.7223 85.4978 49.6582 85.4976ZM73.956 80.0703C73.0267 80.0703 72.2699 80.827 72.2699 81.7565C72.27 82.686 73.0263 83.4427 73.9558 83.4427C74.8857 83.4427 75.6418 82.6862 75.6418 81.7565C75.6419 80.827 74.8854 80.0706 73.956 80.0703ZM73.956 85.4976C71.8935 85.4976 70.2146 83.8195 70.2146 81.7565C70.2147 79.6934 71.8935 78.0152 73.9558 78.0152C76.0201 78.015 77.6971 79.6935 77.6971 81.7565C77.6972 83.8192 76.02 85.4978 73.956 85.4976ZM61.8081 49.1787C55.4475 49.1787 50.2718 54.3535 50.2718 60.7142C50.2719 67.0746 55.4475 72.2497 61.8078 72.2497C68.1682 72.2494 73.3439 67.0749 73.3439 60.7142C73.3442 54.3535 68.1682 49.1787 61.8081 49.1787ZM61.8081 74.3047C54.3147 74.3047 48.2165 68.2082 48.2165 60.7143C48.2166 53.2203 54.3146 47.1236 61.8078 47.1236C69.3011 47.1235 75.3991 53.2203 75.3991 60.7143C75.3995 68.2079 69.3011 74.3049 61.8081 74.3047ZM18.5236 49.9518H30.8446L37.0073 39.2808L30.8446 28.6097H18.5236L12.3633 39.2808L18.5236 49.9518ZM31.4387 52.0071H17.9295C17.5638 52.0071 17.2229 51.8115 17.0409 51.4935L10.2864 39.7946C10.1025 39.4766 10.1024 39.0852 10.2862 38.7671L17.0411 27.0682C17.223 26.7502 17.5637 26.5547 17.9294 26.5547L31.4387 26.5544C31.8063 26.5544 32.1452 26.7506 32.3289 27.0686L39.0838 38.767C39.2657 39.0852 39.2656 39.4769 39.0836 39.7948L32.329 51.4933C32.1452 51.8112 31.8062 52.0072 31.4387 52.0071ZM55.6474 28.5185H67.9683L74.129 17.8475L67.9683 7.17681H55.6474L49.4868 17.8475L55.6474 28.5185ZM68.5628 30.5738H55.0533C54.686 30.5738 54.3466 30.3782 54.1629 30.0602L47.4102 18.3613C47.2263 18.0434 47.2263 17.652 47.4101 17.334L54.1629 5.63541C54.3468 5.31742 54.6857 5.12164 55.0532 5.12164L68.5628 5.12158C68.9286 5.12158 69.269 5.31742 69.4509 5.63541L76.2056 17.3337C76.3894 17.6516 76.3893 18.0436 76.2056 18.3616L69.4512 30.06C69.269 30.378 68.9283 30.574 68.5628 30.5738Z" fill="#121211"/>
<path fill-rule="evenodd" clip-rule="evenodd" d="M58.7552 23.1356H64.8605L67.9133 17.8477L64.8605 12.5602H58.7552L55.7028 17.8477L58.7552 23.1356ZM65.4546 25.1909H58.1611C57.7938 25.1909 57.4546 24.9953 57.2708 24.6772L53.6262 18.3615C53.4423 18.0436 53.4421 17.6522 53.6259 17.3342L57.2712 11.0187C57.4546 10.7007 57.7935 10.505 58.1611 10.505L65.4546 10.5049C65.8202 10.5049 66.161 10.7008 66.3447 11.0188L69.9898 17.3339C70.1737 17.6518 70.1735 18.0438 69.9897 18.3618L66.3449 24.6771C66.161 24.9951 65.8202 25.191 65.4546 25.1909ZM43.5835 51.221C43.4105 51.221 43.2318 51.1768 43.0711 51.0833L34.3026 46.0205C33.81 45.7363 33.6422 45.1083 33.9258 44.6168C34.2099 44.1254 34.8375 43.9565 35.33 44.2407L44.0989 49.3034C44.5894 49.5868 44.759 50.2157 44.4753 50.7073C44.2844 51.0367 43.9383 51.2212 43.5835 51.221ZM61.8081 40.6996C61.2405 40.6996 60.7801 40.2396 60.7801 39.6721L60.7804 29.5464C60.7804 28.9788 61.2404 28.5191 61.8078 28.5191C62.3753 28.5187 62.8354 28.979 62.8354 29.5466L62.8357 39.6719C62.8357 40.2396 62.3751 40.6998 61.8081 40.6996ZM18.5236 92.8185H30.8446L37.0073 82.1474L30.8446 71.4764H18.5236L12.3633 82.1474L18.5236 92.8185ZM31.4387 94.8738H17.9295C17.5638 94.8738 17.2247 94.6779 17.0409 94.36L10.2864 82.6613C10.1025 82.3434 10.1024 81.9517 10.2862 81.6338L17.0411 69.9349C17.225 69.617 17.5637 69.4214 17.9294 69.4214L31.4387 69.4211C31.8063 69.4211 32.1452 69.6172 32.3289 69.9352L39.0838 81.6336C39.2657 81.9516 39.2656 82.3435 39.0836 82.6614L32.329 94.36C32.1452 94.6779 31.8062 94.8738 31.4387 94.8738Z" fill="#121211"/>
<path fill-rule="evenodd" clip-rule="evenodd" d="M34.816 77.3258C34.4607 77.3258 34.1164 77.1417 33.9254 76.812C33.6418 76.3202 33.8095 75.6919 34.302 75.4082L43.0709 70.3454C43.5635 70.0616 44.1912 70.2301 44.4749 70.7216C44.7589 71.2129 44.5891 71.8417 44.0984 72.1254L35.3298 77.1881C35.1672 77.2812 34.9905 77.3258 34.816 77.3258ZM58.6105 66.2211C58.3375 66.2211 58.077 66.1129 57.8843 65.9201L55.3188 63.3545C54.9174 62.9535 54.9174 62.3029 55.3188 61.9015C55.7202 61.4999 56.3714 61.5002 56.7728 61.9017L58.6105 63.7403L66.8425 55.5079C67.2439 55.1064 67.895 55.1067 68.2965 55.508C68.6979 55.9093 68.6978 56.5602 68.2965 56.9615L59.3367 65.92C59.144 66.1127 58.8834 66.2211 58.6105 66.2211ZM21.6312 87.4348H27.7365L30.7893 82.1468L27.7365 76.8592H21.6312L18.5788 82.1468L21.6312 87.4348ZM28.3305 89.4901H21.0371C20.6714 89.4901 20.3324 89.2945 20.1486 88.9765L16.5022 82.6606C16.3184 82.3427 16.3181 81.9514 16.5019 81.6335L20.1487 75.3178C20.3326 74.9998 20.6713 74.8043 21.0371 74.8043L28.3305 74.8039C28.6983 74.8039 29.037 75 29.2208 75.3182L32.8658 81.6334C33.0497 81.9513 33.0494 82.3431 32.8657 82.6609L29.2209 88.9762C29.0371 89.2942 28.698 89.4904 28.3305 89.4901ZM21.6312 44.5686H27.7365L30.7893 39.2808L27.7365 33.9932H21.6312L18.5788 39.2808L21.6312 44.5686ZM28.3305 46.6239H21.0371C20.6714 46.6239 20.3324 46.4283 20.1486 46.1104L16.5022 39.7946C16.3184 39.4766 16.3181 39.0852 16.5019 38.7671L20.1487 32.4517C20.3326 32.1337 20.6713 31.9379 21.0371 31.9379L28.3305 31.9379C28.6983 31.9379 29.037 32.1338 29.2208 32.4517L32.8658 38.7669C33.0497 39.0852 33.0494 39.4768 32.8657 39.7948L29.2209 46.1101C29.0371 46.4281 28.698 46.6242 28.3305 46.6239Z" fill="#121211"/>
</g>
</g>
<defs>
<linearGradient id="paint0_linear_1_276" x1="7.49609" y1="13.9224" x2="23.9243" y2="13.9224" gradientUnits="userSpaceOnUse">
<stop offset="0.0729167" stop-color="#E3A455"/>
<stop offset="0.244792" stop-color="#F6DBA6"/>
<stop offset="0.434957" stop-color="#FFEBC4"/>
<stop offset="0.532623" stop-color="#F0BE79"/>
<stop offset="0.682292" stop-color="#8F653B"/>
<stop offset="0.838542" stop-color="#BA7F3B"/>
<stop offset="1" stop-color="#EEBC70"/>
</linearGradient>
<linearGradient id="paint1_linear_1_276" x1="86.9646" y1="25.0693" x2="86.9646" y2="35.2657" gradientUnits="userSpaceOnUse">
<stop offset="0.0729167" stop-color="#E3A455"/>
<stop offset="0.244792" stop-color="#F6DBA6"/>
<stop offset="0.434957" stop-color="#FFEBC4"/>
<stop offset="0.532623" stop-color="#F0BE79"/>
<stop offset="0.682292" stop-color="#8F653B"/>
<stop offset="0.838542" stop-color="#BA7F3B"/>
<stop offset="1" stop-color="#EEBC70"/>
</linearGradient>
<linearGradient id="paint2_linear_1_276" x1="25.9023" y1="65.1644" x2="15.7059" y2="65.1644" gradientUnits="userSpaceOnUse">
<stop offset="0.0729167" stop-color="#E3A455"/>
<stop offset="0.244792" stop-color="#F6DBA6"/>
<stop offset="0.434957" stop-color="#FFEBC4"/>
<stop offset="0.532623" stop-color="#F0BE79"/>
<stop offset="0.682292" stop-color="#8F653B"/>
<stop offset="0.838542" stop-color="#BA7F3B"/>
<stop offset="1" stop-color="#EEBC70"/>
</linearGradient>
<clipPath id="clip0_1_276">
<rect width="100" height="100" fill="white"/>
</clipPath>
<clipPath id="clip1_1_276">
<rect width="100" height="100" fill="white"/>
</clipPath>
</defs>
</svg>
