<svg width="71" height="71" viewBox="0 0 71 71" fill="none" xmlns="http://www.w3.org/2000/svg">
<path d="M14.2421 45.2324C15.021 47.4927 16.1413 49.4304 17.6018 51.0477C19.0622 52.665 20.6497 53.861 22.3637 54.6399C24.0776 55.4195 25.8991 55.8089 27.8267 55.8089C29.7564 55.8089 31.5758 55.4391 33.2898 54.6988C35.0037 53.9584 36.5723 52.7799 37.9935 51.1633C39.4161 49.5454 40.4958 47.5704 41.2369 45.2331L14.2421 45.2324ZM18.7816 39.5239C21.9377 39.5239 24.5063 36.9554 24.5063 33.7999C24.5063 30.6438 21.9377 28.0752 18.7816 28.0752C15.6255 28.0752 13.0569 30.6431 13.0569 33.7999C13.0576 36.9567 15.6255 39.5239 18.7816 39.5239ZM18.7816 30.4436C19.6712 30.4449 20.5239 30.7988 21.153 31.4279C21.782 32.0569 22.1359 32.9097 22.1372 33.7992C22.1372 35.6491 20.6315 37.1548 18.7816 37.1548C16.9317 37.1548 15.426 35.6491 15.426 33.7992C15.4273 32.9097 15.7812 32.0569 16.4102 31.4279C17.0392 30.7988 17.892 30.4449 18.7816 30.4436Z" fill="#121211"/>
<path d="M19.3726 36.1714C20.3554 36.1714 21.1521 35.3747 21.1521 34.3919C21.1521 33.409 20.3554 32.6123 19.3726 32.6123C18.3897 32.6123 17.593 33.409 17.593 34.3919C17.593 35.3747 18.3897 36.1714 19.3726 36.1714Z" fill="#121211"/>
<path d="M52.0692 67.942C53.0516 67.942 53.848 67.1456 53.848 66.1632C53.848 65.1807 53.0516 64.3843 52.0692 64.3843C51.0867 64.3843 50.2903 65.1807 50.2903 66.1632C50.2903 67.1456 51.0867 67.942 52.0692 67.942Z" fill="#121211"/>
<path d="M68.9122 2.25418L66.8879 0L58.8509 7.21487L56.3168 4.39207L54.9449 5.62396L57.0564 7.97686L43.9262 19.7637C42.0709 18.2694 39.9885 17.02 37.6721 16.0186C34.516 14.6556 31.2057 13.974 27.7392 13.974C24.2728 13.974 20.9604 14.6549 17.8057 16.018C14.6509 17.3817 11.9228 19.2025 9.62462 21.4817C7.32649 23.7609 5.49556 26.487 4.1325 29.662C2.77464 32.8073 2.07845 36.1982 2.08724 39.624C2.08724 43.0918 2.76877 46.4021 4.1325 49.5569C5.49556 52.7123 7.32717 55.4391 9.62462 57.7379C11.9221 60.0367 14.6509 61.8663 17.8057 63.23C20.9604 64.5944 24.2714 65.2746 27.7385 65.2746C31.205 65.2746 34.5166 64.5931 37.6714 63.23C40.8262 61.867 43.553 60.0354 45.8531 57.7379C48.1499 55.4398 49.9802 52.7123 51.3453 49.5562C51.4183 49.3858 51.4825 49.2127 51.5528 49.0403C52.4967 52.6704 53.0464 56.385 53.4054 59.5587C53.354 59.5574 53.3053 59.5506 53.2526 59.5506C50.0965 59.5506 47.5279 62.1185 47.5279 65.2746C47.5279 68.4307 50.0965 70.9993 53.2526 70.9993C56.4087 70.9993 58.978 68.4314 58.978 65.2746C58.978 62.585 57.1099 60.3302 54.6062 59.7189C54.1782 55.9333 53.4933 51.4493 52.2289 47.1918C53.0048 44.7444 53.3964 42.1914 53.3898 39.624C53.3898 36.1575 52.707 32.8364 51.3453 29.662C50.7297 28.2263 49.992 26.846 49.1404 25.5364L47.0695 22.961L60.0476 11.3095L62.5127 14.0545L63.8839 12.8226L60.8731 9.47041L68.9122 2.25418ZM56.6088 65.2753C56.6088 67.1258 55.1031 68.6309 53.2533 68.6309C51.4034 68.6309 49.8977 67.1245 49.8977 65.2753C49.8989 64.3857 50.2529 63.533 50.8819 62.9039C51.5109 62.2749 52.3637 61.921 53.2533 61.9197C53.4304 61.9197 53.6021 61.9373 53.7725 61.9637C53.8598 62.0644 53.975 62.137 54.1036 62.172C54.2322 62.207 54.3683 62.203 54.4946 62.1604C55.1179 62.409 55.6524 62.8386 56.0292 63.3938C56.4061 63.9489 56.608 64.6043 56.6088 65.2753ZM46.5238 50.5217C44.5956 53.8523 41.9668 56.4803 38.6362 58.4093C35.3057 60.3376 31.6729 61.3017 27.7392 61.3017C23.8042 61.3017 20.1728 60.3369 16.8422 58.4093C13.5116 56.4803 10.8829 53.8523 8.95323 50.521C7.02629 47.1904 6.06147 43.5583 6.06147 39.6247C6.06147 35.6903 7.02697 32.0582 8.95323 28.7263C10.8829 25.3957 13.5116 22.767 16.8422 20.838C20.1728 18.9097 23.8042 17.9462 27.7392 17.9462C31.6729 17.9462 35.3057 18.9104 38.6362 20.8387C39.4502 21.311 40.2332 21.835 40.9803 22.4073L39.6105 23.6371C37.09 25.9001 35.9879 29.1455 35.5078 31.3239L33.7499 29.566L33.3314 29.9846L35.3679 32.021C35.2842 32.477 35.2194 32.9363 35.1738 33.3976L33.3314 35.24L33.7499 35.6592L36.378 33.0318L39.0067 35.6592L39.4253 35.24L37.2231 33.0393C43.0973 33.332 46.8349 37.2792 49.2452 42.4387C48.8956 45.2897 47.9697 48.0398 46.5238 50.5217ZM46.3048 28.3727C46.3751 28.4924 46.4542 28.6059 46.5252 28.7263C48.4535 32.0575 49.4163 35.689 49.4163 39.6247C49.4163 39.8268 49.4021 40.0249 49.3987 40.2271C46.8491 35.6268 43.104 32.234 37.5416 31.8669L39.4226 29.9859L39.3367 29.9007L44.15 25.5803L46.3048 28.3727Z" fill="#2E2E2A"/>
</svg>
