<svg width="95" height="95" viewBox="0 0 95 95" fill="none" xmlns="http://www.w3.org/2000/svg">
<g clip-path="url(#clip0_1_261)">
<path d="M47.5005 10.9502C27.3456 10.9502 10.9492 27.3466 10.9492 47.5C10.9492 67.6533 27.3456 84.0497 47.5005 84.0497C67.6538 84.0497 84.0502 67.6533 84.0502 47.5C84.0502 27.3466 67.6538 10.9502 47.5005 10.9502ZM47.5005 81.081C28.9829 81.081 13.918 66.0175 13.918 47.5C13.918 28.9824 28.9829 13.9189 47.5005 13.9189C66.018 13.9189 81.0815 28.9824 81.0815 47.5C81.0815 66.0175 66.018 81.081 47.5005 81.081Z" fill="#121211"/>
<path d="M47.5 15.5117C39.9712 15.5117 32.6459 18.1925 26.8746 23.0598C26.557 23.3284 26.3655 23.7159 26.3491 24.1315C26.3313 24.5471 26.4887 24.9509 26.7826 25.2448L39.042 37.5161C38.8951 37.5116 38.7645 37.4879 38.6145 37.4879C37.8649 37.4879 37.1762 37.5413 36.5898 37.6096L25.4808 26.4991C25.1898 26.2081 24.7905 26.0196 24.3779 26.0656C23.9667 26.0805 23.5793 26.266 23.3091 26.5762C18.2816 32.3802 15.5117 39.8109 15.5117 47.5C15.5117 65.1388 29.8612 79.4883 47.5 79.4883C55.1891 79.4883 62.6198 76.7184 68.4237 71.6894C68.734 71.4192 68.9195 71.0333 68.9344 70.6191C68.9492 70.208 68.7919 69.8087 68.5009 69.5177L59.9272 60.9455C60.2211 60.3473 60.4527 59.7342 60.6382 59.1301L69.7404 68.2189C70.0195 68.498 70.3965 68.6523 70.7898 68.6523C70.8106 68.6523 70.8314 68.6523 70.8522 68.6509C71.2663 68.633 71.6552 68.443 71.9239 68.1254C76.8016 62.363 79.4883 55.0362 79.4883 47.5C79.4883 29.8612 65.1388 15.5117 47.5 15.5117ZM43.3942 41.8163C45.3625 43.4135 45.8598 46.4847 45.9815 48.1665C45.4456 48.2392 44.7613 48.3045 44.0132 48.3045C42.5971 48.3045 40.6184 48.0685 39.2335 46.9448C37.2652 45.3477 36.768 42.2765 36.6462 40.5947C37.1821 40.522 37.8664 40.4566 38.6145 40.4566C40.0306 40.4566 42.0093 40.6927 43.3942 41.8163ZM47.5 76.5195C31.4984 76.5195 18.4805 63.5016 18.4805 47.5C18.4805 41.0593 20.6224 34.8205 24.5412 29.7573L33.7205 38.9381C33.6849 39.0554 33.6508 39.1741 33.6463 39.3018C33.6345 39.5764 33.4148 46.0468 37.3647 49.2501C39.0183 50.592 41.2567 51.2733 44.0147 51.2733C44.7554 51.2733 45.4352 51.2213 46.0171 51.153V54.8699C45.7841 54.622 45.5377 54.386 45.266 54.1663C43.6124 52.8245 41.374 52.1431 38.616 52.1431C36.5008 52.1431 34.8338 52.5602 34.7641 52.5795C34.1273 52.7398 33.673 53.2994 33.6463 53.957C33.6345 54.2316 33.4148 60.702 37.3647 63.9053C39.0183 65.2472 41.2567 65.9285 44.0147 65.9285C44.7554 65.9285 45.4352 65.8766 46.0171 65.8083V71.158C46.0171 71.9788 46.6821 72.6423 47.5015 72.6423C48.3209 72.6423 48.9859 71.9788 48.9859 71.158V65.8083C49.5677 65.8751 50.2476 65.9285 50.9883 65.9285C53.7462 65.9285 55.9847 65.2472 57.6383 63.9053C57.8327 63.7465 58.0109 63.5743 58.186 63.4021L65.2442 70.4588C60.1795 74.3776 53.9407 76.5195 47.5 76.5195ZM47.5 36.4607C46.2695 35.3073 44.1973 32.9858 44.1973 30.4505C44.1973 27.9152 46.2695 25.5951 47.5 24.4402C48.7305 25.5936 50.8027 27.9152 50.8027 30.4505C50.8027 32.9858 48.7305 35.3073 47.5 36.4607ZM45.9815 62.8217C45.4456 62.8945 44.7613 62.9598 44.0132 62.9598C42.5971 62.9598 40.6184 62.7238 39.2335 61.6001C37.2652 60.0029 36.768 56.9317 36.6462 55.2499C37.1821 55.1772 37.8664 55.1119 38.6145 55.1119C40.0306 55.1119 42.0093 55.3479 43.3942 56.4716C45.364 58.0687 45.8612 61.1384 45.9815 62.8217ZM56.3855 55.1119C57.1321 55.1119 57.8164 55.1772 58.3508 55.2499C58.2305 56.9332 57.7348 60.0029 55.7665 61.6001C54.3801 62.7238 52.4014 62.9598 50.9853 62.9598C50.2372 62.9598 49.5529 62.8945 49.0185 62.8217C49.1387 61.1384 49.636 58.0687 51.6043 56.4716C52.9907 55.3479 54.9694 55.1119 56.3855 55.1119ZM70.6666 64.9473L61.3017 55.5958C61.3759 54.6725 61.3566 54.0387 61.3522 53.957C61.324 53.3009 60.8712 52.7413 60.2345 52.5795C60.1766 52.5632 59.0024 52.2738 57.3919 52.1773C57.3577 52.1743 57.3251 52.1713 57.2909 52.1698C57 52.1535 56.7002 52.1431 56.3855 52.1431C53.6275 52.1431 51.3891 52.8245 49.7355 54.1663C49.4653 54.386 49.2174 54.6235 48.9844 54.8699V51.153C49.5662 51.2198 50.2461 51.2733 50.9868 51.2733C53.7448 51.2733 55.9832 50.592 57.6368 49.2501C61.5852 46.0468 61.3655 39.5749 61.3537 39.3018C61.3255 38.6457 60.8727 38.0861 60.2359 37.9243C60.1662 37.905 58.4992 37.4879 56.3855 37.4879C53.6275 37.4879 51.3891 38.1692 49.7355 39.5111C49.4653 39.7308 49.2174 39.9683 48.9844 40.2147V39.1192C50.3916 37.9065 53.7715 34.5666 53.7715 30.4505C53.7715 25.3635 48.6073 21.4581 48.3877 21.2948C47.8622 20.903 47.1393 20.903 46.6138 21.2948C46.3941 21.4581 41.23 25.3635 41.23 30.4505C41.23 34.5666 44.6099 37.9065 46.0171 39.1192V40.2147C45.7841 39.9668 45.5377 39.7308 45.266 39.5111C45.2378 39.4888 45.2037 39.474 45.1755 39.4517L30.0556 24.3215C35.0758 20.5438 41.2107 18.4805 47.5 18.4805C63.5016 18.4805 76.5195 31.4984 76.5195 47.5C76.5195 53.7952 74.4503 59.9302 70.6666 64.9473ZM49.0185 48.1665C49.1387 46.4832 49.636 43.4135 51.6043 41.8163C52.9907 40.6927 54.9694 40.4566 56.3855 40.4566C57.1321 40.4566 57.8164 40.522 58.3508 40.5947C58.2305 42.278 57.7348 45.3477 55.7665 46.9448C54.3801 48.0685 52.4014 48.3045 50.9853 48.3045C50.2387 48.3045 49.5544 48.2392 49.0185 48.1665Z" fill="#121211"/>
</g>
<defs>
<clipPath id="clip0_1_261">
<rect width="95" height="95" fill="white"/>
</clipPath>
</defs>
</svg>
