<svg width="24" height="23" viewBox="0 0 24 23" fill="none" xmlns="http://www.w3.org/2000/svg">
<path d="M12.1013 5.77588C15.2255 5.77588 17.8042 8.35456 17.8042 11.4787C17.8042 14.6525 15.2255 17.1816 12.1013 17.1816C8.92756 17.1816 6.39847 14.6525 6.39847 11.4787C6.39847 8.35456 8.92756 5.77588 12.1013 5.77588ZM12.1013 15.198C14.1345 15.198 15.771 13.5615 15.771 11.4787C15.771 9.44554 14.1345 7.80907 12.1013 7.80907C10.0185 7.80907 8.38207 9.44554 8.38207 11.4787C8.38207 13.5615 10.0681 15.198 12.1013 15.198ZM19.3415 5.57752C19.3415 6.32137 18.7464 6.91645 18.0025 6.91645C17.2587 6.91645 16.6636 6.32137 16.6636 5.57752C16.6636 4.83367 17.2587 4.23859 18.0025 4.23859C18.7464 4.23859 19.3415 4.83367 19.3415 5.57752ZM23.1103 6.91645C23.2095 8.75128 23.2095 14.2558 23.1103 16.0906C23.0111 17.8758 22.6144 19.4131 21.325 20.7521C20.0357 22.0414 18.4488 22.4381 16.6636 22.5373C14.8288 22.6365 9.32428 22.6365 7.48945 22.5373C5.70421 22.4381 4.16692 22.0414 2.82799 20.7521C1.53865 19.4131 1.14193 17.8758 1.04275 16.0906C0.943574 14.2558 0.943574 8.75128 1.04275 6.91645C1.14193 5.13121 1.53865 3.54433 2.82799 2.25499C4.16692 0.965654 5.70421 0.568934 7.48945 0.469754C9.32428 0.370574 14.8288 0.370574 16.6636 0.469754C18.4488 0.568934 20.0357 0.965654 21.325 2.25499C22.6144 3.54433 23.0111 5.13121 23.1103 6.91645ZM20.73 18.0246C21.325 16.5865 21.1763 13.1152 21.1763 11.4787C21.1763 9.89185 21.325 6.42055 20.73 4.93285C20.3333 3.99064 19.5894 3.1972 18.6472 2.85007C17.1595 2.25499 13.6882 2.40376 12.1013 2.40376C10.4648 2.40376 6.99355 2.25499 5.55544 2.85007C4.56364 3.24679 3.81979 3.99064 3.42307 4.93285C2.82799 6.42055 2.97676 9.89185 2.97676 11.4787C2.97676 13.1152 2.82799 16.5865 3.42307 18.0246C3.81979 19.0164 4.56364 19.7603 5.55544 20.157C6.99355 20.7521 10.4648 20.6033 12.1013 20.6033C13.6882 20.6033 17.1595 20.7521 18.6472 20.157C19.5894 19.7603 20.3828 19.0164 20.73 18.0246Z" fill="black"/>
</svg>
