<svg width="100" height="100" viewBox="0 0 100 100" fill="none" xmlns="http://www.w3.org/2000/svg">
<path d="M17.0757 16.7614C17.1983 16.2294 17.468 15.7425 17.854 15.3563C18.24 14.9702 18.7267 14.7003 19.2587 14.5774L23.6407 13.5664C23.7212 13.5481 23.7931 13.5031 23.8447 13.4386C23.8962 13.3741 23.9243 13.294 23.9243 13.2114C23.9243 13.1288 23.8962 13.0487 23.8447 12.9842C23.7931 12.9197 23.7212 12.8746 23.6407 12.8564L19.2587 11.8454C18.7268 11.7225 18.24 11.4528 17.8539 11.0668C17.4678 10.6809 17.1978 10.1943 17.0747 9.66236L16.0637 5.28236C16.045 5.20233 15.9999 5.13097 15.9355 5.07988C15.8711 5.02879 15.7914 5.00098 15.7092 5.00098C15.627 5.00098 15.5473 5.02879 15.4829 5.07988C15.4185 5.13097 15.3734 5.20233 15.3547 5.28236L14.3437 9.66236C14.221 10.1946 13.9512 10.6815 13.565 11.0677C13.1788 11.4538 12.6919 11.7237 12.1597 11.8464L7.77965 12.8564C7.69913 12.8746 7.62721 12.9197 7.57568 12.9842C7.52416 13.0487 7.49609 13.1288 7.49609 13.2114C7.49609 13.294 7.52416 13.3741 7.57568 13.4386C7.62721 13.5031 7.69913 13.5481 7.77965 13.5664L12.1597 14.5774C12.6918 14.7002 13.1787 14.9701 13.5649 15.3562C13.951 15.7424 14.2209 16.2293 14.3437 16.7614L15.3547 21.1434C15.3734 21.2234 15.4185 21.2948 15.4829 21.3459C15.5473 21.397 15.627 21.4248 15.7092 21.4248C15.7914 21.4248 15.8711 21.397 15.9355 21.3459C15.9999 21.2948 16.045 21.2234 16.0637 21.1434L17.0757 16.7614Z" fill="url(#paint0_linear_1_220)"/>
<path d="M85.9576 31.6165L87.1006 35.0455C87.122 35.1096 87.163 35.1654 87.2178 35.2049C87.2727 35.2445 87.3385 35.2657 87.4061 35.2657C87.4737 35.2657 87.5396 35.2445 87.5944 35.2049C87.6493 35.1654 87.6903 35.1096 87.7116 35.0455L88.6516 32.2275C88.7147 32.0378 88.8211 31.8653 88.9624 31.7238C89.1037 31.5824 89.276 31.4758 89.4656 31.4125L92.2836 30.4735C92.3478 30.4521 92.4035 30.4111 92.4431 30.3563C92.4826 30.3015 92.5039 30.2356 92.5039 30.168C92.5039 30.1004 92.4826 30.0345 92.4431 29.9797C92.4035 29.9249 92.3478 29.8839 92.2836 29.8625L89.4656 28.9235C89.276 28.8602 89.1037 28.7536 88.9624 28.6121C88.8211 28.4707 88.7147 28.2982 88.6516 28.1085L87.7116 25.2895C87.6903 25.2254 87.6493 25.1696 87.5944 25.1301C87.5396 25.0905 87.4737 25.0693 87.4061 25.0693C87.3385 25.0693 87.2727 25.0905 87.2178 25.1301C87.163 25.1696 87.122 25.2254 87.1006 25.2895L86.1616 28.1085C86.0982 28.2982 85.9916 28.4706 85.8501 28.612C85.7087 28.7534 85.5363 28.8601 85.3466 28.9235L82.5266 29.8625C82.4625 29.8839 82.4067 29.9249 82.3672 29.9797C82.3277 30.0345 82.3064 30.1004 82.3064 30.168C82.3064 30.2356 82.3277 30.3015 82.3672 30.3563C82.4067 30.4111 82.4625 30.4521 82.5266 30.4735L85.9576 31.6165Z" fill="url(#paint1_linear_1_220)"/>
<path d="M19.3541 64.1578L15.9261 65.3008C15.862 65.3222 15.8062 65.3632 15.7667 65.418C15.7271 65.4728 15.7059 65.5387 15.7059 65.6063C15.7059 65.6739 15.7271 65.7398 15.7667 65.7946C15.8062 65.8494 15.862 65.8905 15.9261 65.9118L18.7441 66.8508C18.9336 66.9141 19.1058 67.0205 19.2471 67.1618C19.3884 67.3031 19.4948 67.4753 19.5581 67.6648L20.4981 70.4828C20.5195 70.5469 20.5605 70.6027 20.6153 70.6423C20.6701 70.6818 20.736 70.7031 20.8036 70.7031C20.8712 70.7031 20.9371 70.6818 20.9919 70.6423C21.0467 70.6027 21.0877 70.5469 21.1091 70.4828L22.0481 67.6658C22.1111 67.4761 22.2175 67.3036 22.3588 67.1622C22.5001 67.0207 22.6724 66.9141 22.8621 66.8508L25.6821 65.9118C25.7462 65.8905 25.802 65.8494 25.8415 65.7946C25.8811 65.7398 25.9023 65.6739 25.9023 65.6063C25.9023 65.5387 25.8811 65.4728 25.8415 65.418C25.802 65.3632 25.7462 65.3222 25.6821 65.3008L22.8631 64.3608C22.6734 64.2978 22.5009 64.1914 22.3595 64.0501C22.218 63.9088 22.1114 63.7365 22.0481 63.5468L21.1091 60.7268C21.0877 60.6627 21.0467 60.6069 20.9919 60.5674C20.9371 60.5278 20.8712 60.5066 20.8036 60.5066C20.736 60.5066 20.6701 60.5278 20.6153 60.5674C20.5605 60.6069 20.5195 60.6627 20.4981 60.7268L19.3541 64.1578Z" fill="url(#paint2_linear_1_220)"/>
<g clip-path="url(#clip0_1_220)">
<path fill-rule="evenodd" clip-rule="evenodd" d="M61.355 77.0001H39.928C35.4148 77.0001 31.703 73.2883 31.703 68.7752V40.6416C31.703 36.1284 35.4148 32.4166 39.928 32.4166H61.355C65.9104 32.4166 69.58 36.1284 69.58 40.6416V68.7752C69.58 73.2883 65.9104 77.0001 61.355 77.0001ZM39.928 34.1038C36.3427 34.1038 33.3902 37.0563 33.3902 40.6416V68.7752C33.3902 72.3604 36.3427 75.3129 39.928 75.3129H61.355C64.9824 75.3129 67.8928 72.3604 67.8928 68.7752V40.6416C67.8928 37.0563 64.9824 34.1038 61.355 34.1038H39.928Z" fill="black"/>
<path fill-rule="evenodd" clip-rule="evenodd" d="M56.8418 34.1037H44.4411C43.9771 34.1037 43.5975 33.7241 43.5975 33.2601V19.2144C43.5975 18.7504 43.9771 18.3708 44.4411 18.3708H56.8418C57.3058 18.3708 57.6854 18.7504 57.6854 19.2144V33.2601C57.6854 33.7241 57.3058 34.1037 56.8418 34.1037ZM45.2847 32.4165H55.9982V20.058H45.2847V32.4165ZM56.8418 11.58H44.4411C43.9771 11.58 43.5975 11.2004 43.5975 10.7364V5.84359C43.5975 5.37961 43.9771 5 44.4411 5H56.8418C57.3058 5 57.6854 5.37961 57.6854 5.84359V10.7364C57.6854 11.2004 57.3058 11.58 56.8418 11.58ZM45.2847 9.89279H55.9982V6.68717H45.2847V9.89279Z" fill="black"/>
<path fill-rule="evenodd" clip-rule="evenodd" d="M60.0896 20.0579H41.1933C38.3673 20.0579 36.0896 17.7802 36.0896 14.9542C36.0896 12.1704 38.3673 9.8927 41.1933 9.8927H60.0896C62.9157 9.8927 65.1933 12.1704 65.1933 14.9542C65.1933 17.7802 62.9157 20.0579 60.0896 20.0579ZM41.1933 11.5799C39.2953 11.5799 37.7768 13.0983 37.7768 14.9542C37.7768 16.8523 39.2953 18.3707 41.1933 18.3707H60.0896C61.9877 18.3707 63.5062 16.8523 63.5062 14.9542C63.5062 13.0983 61.9877 11.5799 60.0896 11.5799H41.1933ZM68.7364 66.1177H32.5466C32.0826 66.1177 31.703 65.738 31.703 65.2741V44.1423C31.703 43.6783 32.0826 43.2987 32.5466 43.2987H68.7364C69.2004 43.2987 69.58 43.6783 69.58 44.1423V65.2741C69.58 65.738 69.2004 66.1177 68.7364 66.1177ZM33.3902 64.4305H67.8928V44.9858H33.3902V64.4305Z" fill="black"/>
<path fill-rule="evenodd" clip-rule="evenodd" d="M50.6419 63.3338C45.8756 63.3338 41.9951 59.4533 41.9951 54.6871C41.9951 49.9208 45.8756 46.0825 50.6419 46.0825C55.4081 46.0825 59.2886 49.9208 59.2886 54.6871C59.2886 59.4533 55.4081 63.3338 50.6419 63.3338ZM50.6419 47.7697C46.8036 47.7697 43.6823 50.8488 43.6823 54.6871C43.6823 58.5254 46.8036 61.6467 50.6419 61.6467C54.4802 61.6467 57.6014 58.5254 57.6014 54.6871C57.6014 50.8488 54.4802 47.7697 50.6419 47.7697Z" fill="black"/>
<path fill-rule="evenodd" clip-rule="evenodd" d="M48.6171 58.7789C48.4062 58.7789 48.1953 58.6945 48.0266 58.5258L45.6224 56.1216C45.2849 55.7841 45.2849 55.278 45.6224 54.9406C45.9598 54.6031 46.466 54.6031 46.8034 54.9406L48.6171 56.7543L54.48 50.8913C54.8174 50.5539 55.3658 50.5539 55.661 50.8913C55.9985 51.1866 55.9985 51.7349 55.661 52.0724L49.2076 58.5258C49.0389 58.6945 48.828 58.7789 48.6171 58.7789ZM32.8421 39.4608C32.7999 39.4608 32.7999 39.4608 32.7577 39.4608C29.8051 39.2077 27.0213 37.9001 24.9124 35.7912C21.7067 32.5855 20.4835 27.9036 21.6224 23.5592C21.7067 23.2639 21.9598 23.053 22.2129 22.9687C23.3095 22.6734 24.4062 22.5469 25.5029 22.5469C28.8772 22.5469 32.0828 23.8544 34.4449 26.2165C36.5116 28.2411 37.7348 30.814 38.0723 33.6822C38.1145 34.0618 37.9036 34.3992 37.5661 34.568C35.6681 35.285 34.234 36.8878 33.6435 38.8281C33.5591 39.2077 33.2217 39.4608 32.8421 39.4608ZM23.1408 24.4871C22.3394 28.1145 23.4783 31.9529 26.0934 34.6101C27.7805 36.2551 29.9317 37.3518 32.2515 37.6892C33.0108 35.7912 34.487 34.1884 36.3008 33.2604C35.9211 31.0249 34.8667 29.0425 33.2638 27.4397C31.1971 25.3729 28.4554 24.234 25.5029 24.234C24.7015 24.234 23.9422 24.3184 23.1408 24.4871Z" fill="black"/>
<path fill-rule="evenodd" clip-rule="evenodd" d="M37.2285 34.6098C37.102 34.6098 36.9332 34.5676 36.8067 34.4833C36.5958 34.3567 36.4271 34.1458 36.4271 33.8928C36.1318 31.4042 35.0352 29.1687 33.2637 27.4393C32.2514 26.427 31.0703 25.6256 29.7628 25.0773C29.3832 24.9086 29.1723 24.4868 29.2566 24.065C29.8471 21.9138 30.986 19.9736 32.5466 18.3708C32.7575 18.1599 33.0528 18.0755 33.348 18.1599C37.7347 19.3409 41.1512 22.7574 42.3322 27.1441C42.8805 29.2109 42.8805 31.4042 42.3744 33.471C42.29 33.8506 41.9526 34.1037 41.5308 34.1037H39.928C39.1266 34.1037 38.3252 34.2724 37.5659 34.5676C37.4394 34.6098 37.355 34.6098 37.2285 34.6098ZM31.1125 23.8119C32.3357 24.4446 33.4745 25.246 34.4447 26.2161C36.2584 28.0298 37.4394 30.2232 37.9034 32.6696C38.5782 32.5008 39.2531 32.4165 39.928 32.4165H40.8559C41.1512 30.8137 41.109 29.1687 40.6872 27.5659C39.7171 23.9384 36.9332 21.0703 33.3902 19.9314C32.3779 21.0703 31.5765 22.3778 31.1125 23.8119ZM68.6521 40.3462C68.2724 40.3462 67.9772 40.0931 67.8507 39.7557V39.7135C67.8507 39.6713 67.8085 39.6291 67.8085 39.587C67.471 37.3515 65.9104 35.4534 63.8436 34.6098C63.464 34.4411 63.2531 34.0615 63.3375 33.6819C63.8014 30.9824 65.0668 28.536 67.0071 26.5957C69.4956 24.1072 72.7856 22.7153 76.3287 22.7153C77.4675 22.7153 78.6064 22.884 79.7452 23.1792C80.0405 23.2636 80.2514 23.4745 80.3357 23.7697C81.5589 28.3251 80.2514 33.1757 76.9192 36.5079C74.7259 38.7012 71.8155 40.0509 68.7364 40.3462C68.6942 40.3462 68.6942 40.3462 68.6521 40.3462ZM65.109 33.3444C67.1758 34.3989 68.7364 36.297 69.3269 38.5747C71.7311 38.195 73.9666 37.0562 75.7382 35.3268C78.522 32.543 79.6608 28.4938 78.8173 24.6977C78.0159 24.4868 77.1723 24.4024 76.3287 24.4024C73.2496 24.4024 70.3392 25.6256 68.1881 27.7768C66.6274 29.3374 65.573 31.2355 65.109 33.3444Z" fill="black"/>
<path fill-rule="evenodd" clip-rule="evenodd" d="M64.1388 34.652C64.0544 34.652 63.9279 34.652 63.8435 34.6098C63.0421 34.2724 62.1985 34.1037 61.355 34.1037H59.4147C58.9929 34.1037 58.6555 33.8084 58.5711 33.4288C58.1915 31.4464 58.2759 29.4639 58.782 27.5237C60.0052 22.9683 63.5905 19.3831 68.1458 18.1599C68.4411 18.0755 68.7363 18.1599 68.9472 18.3708C70.5922 20.0158 71.7732 22.0826 72.3637 24.3181C72.4903 24.6977 72.2794 25.1195 71.8576 25.2882C70.5079 25.8787 69.2425 26.7223 68.188 27.7768C66.5008 29.4639 65.4042 31.6151 64.9824 33.9349C64.9402 34.188 64.7715 34.4411 64.5606 34.5676C64.434 34.6098 64.3075 34.652 64.1388 34.652ZM60.1318 32.4165H61.355C62.1142 32.4165 62.8312 32.5008 63.5061 32.7117C64.0966 30.3919 65.2776 28.2829 67.007 26.5957C68.0193 25.5413 69.2003 24.6977 70.5079 24.065C70.0017 22.5465 69.2003 21.1124 68.1036 19.9314C64.3497 21.1124 61.4393 24.1493 60.427 27.9455C60.0474 29.4218 59.9209 30.9402 60.1318 32.4165ZM80.42 77H21.5799C21.1159 77 20.7363 76.6203 20.7363 76.1564C20.7363 75.6924 21.1159 75.3128 21.5799 75.3128H80.42C80.884 75.3128 81.2636 75.6924 81.2636 76.1564C81.2636 76.6203 80.884 77 80.42 77Z" fill="black"/>
</g>
<defs>
<linearGradient id="paint0_linear_1_220" x1="7.49609" y1="13.9224" x2="23.9243" y2="13.9224" gradientUnits="userSpaceOnUse">
<stop offset="0.0729167" stop-color="#E3A455"/>
<stop offset="0.244792" stop-color="#F6DBA6"/>
<stop offset="0.434957" stop-color="#FFEBC4"/>
<stop offset="0.532623" stop-color="#F0BE79"/>
<stop offset="0.682292" stop-color="#8F653B"/>
<stop offset="0.838542" stop-color="#BA7F3B"/>
<stop offset="1" stop-color="#EEBC70"/>
</linearGradient>
<linearGradient id="paint1_linear_1_220" x1="86.9646" y1="25.0693" x2="86.9646" y2="35.2657" gradientUnits="userSpaceOnUse">
<stop offset="0.0729167" stop-color="#E3A455"/>
<stop offset="0.244792" stop-color="#F6DBA6"/>
<stop offset="0.434957" stop-color="#FFEBC4"/>
<stop offset="0.532623" stop-color="#F0BE79"/>
<stop offset="0.682292" stop-color="#8F653B"/>
<stop offset="0.838542" stop-color="#BA7F3B"/>
<stop offset="1" stop-color="#EEBC70"/>
</linearGradient>
<linearGradient id="paint2_linear_1_220" x1="25.9023" y1="65.1644" x2="15.7059" y2="65.1644" gradientUnits="userSpaceOnUse">
<stop offset="0.0729167" stop-color="#E3A455"/>
<stop offset="0.244792" stop-color="#F6DBA6"/>
<stop offset="0.434957" stop-color="#FFEBC4"/>
<stop offset="0.532623" stop-color="#F0BE79"/>
<stop offset="0.682292" stop-color="#8F653B"/>
<stop offset="0.838542" stop-color="#BA7F3B"/>
<stop offset="1" stop-color="#EEBC70"/>
</linearGradient>
<clipPath id="clip0_1_220">
<rect width="72" height="72" fill="white" transform="translate(15 5)"/>
</clipPath>
</defs>
</svg>
