<svg width="100" height="100" viewBox="0 0 100 100" fill="none" xmlns="http://www.w3.org/2000/svg">
<path d="M17.0757 16.7614C17.1983 16.2294 17.468 15.7425 17.854 15.3563C18.24 14.9702 18.7267 14.7003 19.2587 14.5774L23.6407 13.5664C23.7212 13.5481 23.7931 13.5031 23.8447 13.4386C23.8962 13.3741 23.9243 13.294 23.9243 13.2114C23.9243 13.1288 23.8962 13.0487 23.8447 12.9842C23.7931 12.9197 23.7212 12.8746 23.6407 12.8564L19.2587 11.8454C18.7268 11.7225 18.24 11.4528 17.8539 11.0668C17.4678 10.6809 17.1978 10.1943 17.0747 9.66236L16.0637 5.28236C16.045 5.20233 15.9999 5.13097 15.9355 5.07988C15.8711 5.02879 15.7914 5.00098 15.7092 5.00098C15.627 5.00098 15.5473 5.02879 15.4829 5.07988C15.4185 5.13097 15.3734 5.20233 15.3547 5.28236L14.3437 9.66236C14.221 10.1946 13.9512 10.6815 13.565 11.0677C13.1788 11.4538 12.6919 11.7237 12.1597 11.8464L7.77965 12.8564C7.69913 12.8746 7.62721 12.9197 7.57568 12.9842C7.52416 13.0487 7.49609 13.1288 7.49609 13.2114C7.49609 13.294 7.52416 13.3741 7.57568 13.4386C7.62721 13.5031 7.69913 13.5481 7.77965 13.5664L12.1597 14.5774C12.6918 14.7002 13.1787 14.9701 13.5649 15.3562C13.951 15.7424 14.2209 16.2293 14.3437 16.7614L15.3547 21.1434C15.3734 21.2234 15.4185 21.2948 15.4829 21.3459C15.5473 21.397 15.627 21.4248 15.7092 21.4248C15.7914 21.4248 15.8711 21.397 15.9355 21.3459C15.9999 21.2948 16.045 21.2234 16.0637 21.1434L17.0757 16.7614Z" fill="url(#paint0_linear_1_243)"/>
<path d="M85.9576 31.6165L87.1006 35.0455C87.122 35.1096 87.163 35.1654 87.2178 35.2049C87.2727 35.2445 87.3385 35.2657 87.4061 35.2657C87.4737 35.2657 87.5396 35.2445 87.5944 35.2049C87.6493 35.1654 87.6903 35.1096 87.7116 35.0455L88.6516 32.2275C88.7147 32.0378 88.8211 31.8653 88.9624 31.7238C89.1037 31.5824 89.276 31.4758 89.4656 31.4125L92.2836 30.4735C92.3478 30.4521 92.4035 30.4111 92.4431 30.3563C92.4826 30.3015 92.5039 30.2356 92.5039 30.168C92.5039 30.1004 92.4826 30.0345 92.4431 29.9797C92.4035 29.9249 92.3478 29.8839 92.2836 29.8625L89.4656 28.9235C89.276 28.8602 89.1037 28.7536 88.9624 28.6121C88.8211 28.4707 88.7147 28.2982 88.6516 28.1085L87.7116 25.2895C87.6903 25.2254 87.6493 25.1696 87.5944 25.1301C87.5396 25.0905 87.4737 25.0693 87.4061 25.0693C87.3385 25.0693 87.2727 25.0905 87.2178 25.1301C87.163 25.1696 87.122 25.2254 87.1006 25.2895L86.1616 28.1085C86.0982 28.2982 85.9916 28.4706 85.8501 28.612C85.7087 28.7534 85.5363 28.8601 85.3466 28.9235L82.5266 29.8625C82.4625 29.8839 82.4067 29.9249 82.3672 29.9797C82.3277 30.0345 82.3064 30.1004 82.3064 30.168C82.3064 30.2356 82.3277 30.3015 82.3672 30.3563C82.4067 30.4111 82.4625 30.4521 82.5266 30.4735L85.9576 31.6165Z" fill="url(#paint1_linear_1_243)"/>
<path d="M19.3541 64.1578L15.9261 65.3008C15.862 65.3222 15.8062 65.3632 15.7667 65.418C15.7271 65.4728 15.7059 65.5387 15.7059 65.6063C15.7059 65.6739 15.7271 65.7398 15.7667 65.7946C15.8062 65.8494 15.862 65.8905 15.9261 65.9118L18.7441 66.8508C18.9336 66.9141 19.1058 67.0205 19.2471 67.1618C19.3884 67.3031 19.4948 67.4753 19.5581 67.6648L20.4981 70.4828C20.5195 70.5469 20.5605 70.6027 20.6153 70.6423C20.6701 70.6818 20.736 70.7031 20.8036 70.7031C20.8712 70.7031 20.9371 70.6818 20.9919 70.6423C21.0467 70.6027 21.0877 70.5469 21.1091 70.4828L22.0481 67.6658C22.1111 67.4761 22.2175 67.3036 22.3588 67.1622C22.5001 67.0207 22.6724 66.9141 22.8621 66.8508L25.6821 65.9118C25.7462 65.8905 25.802 65.8494 25.8415 65.7946C25.8811 65.7398 25.9023 65.6739 25.9023 65.6063C25.9023 65.5387 25.8811 65.4728 25.8415 65.418C25.802 65.3632 25.7462 65.3222 25.6821 65.3008L22.8631 64.3608C22.6734 64.2978 22.5009 64.1914 22.3595 64.0501C22.218 63.9088 22.1114 63.7365 22.0481 63.5468L21.1091 60.7268C21.0877 60.6627 21.0467 60.6069 20.9919 60.5674C20.9371 60.5278 20.8712 60.5066 20.8036 60.5066C20.736 60.5066 20.6701 60.5278 20.6153 60.5674C20.5605 60.6069 20.5195 60.6627 20.4981 60.7268L19.3541 64.1578Z" fill="url(#paint2_linear_1_243)"/>
<defs>
<linearGradient id="paint0_linear_1_243" x1="7.49609" y1="13.9224" x2="23.9243" y2="13.9224" gradientUnits="userSpaceOnUse">
<stop offset="0.0729167" stop-color="#E3A455"/>
<stop offset="0.244792" stop-color="#F6DBA6"/>
<stop offset="0.434957" stop-color="#FFEBC4"/>
<stop offset="0.532623" stop-color="#F0BE79"/>
<stop offset="0.682292" stop-color="#8F653B"/>
<stop offset="0.838542" stop-color="#BA7F3B"/>
<stop offset="1" stop-color="#EEBC70"/>
</linearGradient>
<linearGradient id="paint1_linear_1_243" x1="86.9646" y1="25.0693" x2="86.9646" y2="35.2657" gradientUnits="userSpaceOnUse">
<stop offset="0.0729167" stop-color="#E3A455"/>
<stop offset="0.244792" stop-color="#F6DBA6"/>
<stop offset="0.434957" stop-color="#FFEBC4"/>
<stop offset="0.532623" stop-color="#F0BE79"/>
<stop offset="0.682292" stop-color="#8F653B"/>
<stop offset="0.838542" stop-color="#BA7F3B"/>
<stop offset="1" stop-color="#EEBC70"/>
</linearGradient>
<linearGradient id="paint2_linear_1_243" x1="25.9023" y1="65.1644" x2="15.7059" y2="65.1644" gradientUnits="userSpaceOnUse">
<stop offset="0.0729167" stop-color="#E3A455"/>
<stop offset="0.244792" stop-color="#F6DBA6"/>
<stop offset="0.434957" stop-color="#FFEBC4"/>
<stop offset="0.532623" stop-color="#F0BE79"/>
<stop offset="0.682292" stop-color="#8F653B"/>
<stop offset="0.838542" stop-color="#BA7F3B"/>
<stop offset="1" stop-color="#EEBC70"/>
</linearGradient>
</defs>
</svg>
