<svg width="100" height="100" viewBox="0 0 100 100" fill="none" xmlns="http://www.w3.org/2000/svg">
<path d="M17.0757 16.7614C17.1983 16.2294 17.468 15.7425 17.854 15.3563C18.24 14.9702 18.7267 14.7003 19.2587 14.5774L23.6407 13.5664C23.7212 13.5481 23.7931 13.5031 23.8447 13.4386C23.8962 13.3741 23.9243 13.294 23.9243 13.2114C23.9243 13.1288 23.8962 13.0487 23.8447 12.9842C23.7931 12.9197 23.7212 12.8746 23.6407 12.8564L19.2587 11.8454C18.7268 11.7225 18.24 11.4528 17.8539 11.0668C17.4678 10.6809 17.1978 10.1943 17.0747 9.66236L16.0637 5.28236C16.045 5.20233 15.9999 5.13097 15.9355 5.07988C15.8711 5.02879 15.7914 5.00098 15.7092 5.00098C15.627 5.00098 15.5473 5.02879 15.4829 5.07988C15.4185 5.13097 15.3734 5.20233 15.3547 5.28236L14.3437 9.66236C14.221 10.1946 13.9512 10.6815 13.565 11.0677C13.1788 11.4538 12.6919 11.7237 12.1597 11.8464L7.77965 12.8564C7.69913 12.8746 7.62721 12.9197 7.57568 12.9842C7.52416 13.0487 7.49609 13.1288 7.49609 13.2114C7.49609 13.294 7.52416 13.3741 7.57568 13.4386C7.62721 13.5031 7.69913 13.5481 7.77965 13.5664L12.1597 14.5774C12.6918 14.7002 13.1787 14.9701 13.5649 15.3562C13.951 15.7424 14.2209 16.2293 14.3437 16.7614L15.3547 21.1434C15.3734 21.2234 15.4185 21.2948 15.4829 21.3459C15.5473 21.397 15.627 21.4248 15.7092 21.4248C15.7914 21.4248 15.8711 21.397 15.9355 21.3459C15.9999 21.2948 16.045 21.2234 16.0637 21.1434L17.0757 16.7614Z" fill="url(#paint0_linear_1_251)"/>
<path d="M85.9576 31.6165L87.1006 35.0455C87.122 35.1096 87.163 35.1654 87.2178 35.2049C87.2727 35.2445 87.3385 35.2657 87.4061 35.2657C87.4737 35.2657 87.5396 35.2445 87.5944 35.2049C87.6493 35.1654 87.6903 35.1096 87.7116 35.0455L88.6516 32.2275C88.7147 32.0378 88.8211 31.8653 88.9624 31.7238C89.1037 31.5824 89.276 31.4758 89.4656 31.4125L92.2836 30.4735C92.3478 30.4521 92.4035 30.4111 92.4431 30.3563C92.4826 30.3015 92.5039 30.2356 92.5039 30.168C92.5039 30.1004 92.4826 30.0345 92.4431 29.9797C92.4035 29.9249 92.3478 29.8839 92.2836 29.8625L89.4656 28.9235C89.276 28.8602 89.1037 28.7536 88.9624 28.6121C88.8211 28.4707 88.7147 28.2982 88.6516 28.1085L87.7116 25.2895C87.6903 25.2254 87.6493 25.1696 87.5944 25.1301C87.5396 25.0905 87.4737 25.0693 87.4061 25.0693C87.3385 25.0693 87.2727 25.0905 87.2178 25.1301C87.163 25.1696 87.122 25.2254 87.1006 25.2895L86.1616 28.1085C86.0982 28.2982 85.9916 28.4706 85.8501 28.612C85.7087 28.7534 85.5363 28.8601 85.3466 28.9235L82.5266 29.8625C82.4625 29.8839 82.4067 29.9249 82.3672 29.9797C82.3277 30.0345 82.3064 30.1004 82.3064 30.168C82.3064 30.2356 82.3277 30.3015 82.3672 30.3563C82.4067 30.4111 82.4625 30.4521 82.5266 30.4735L85.9576 31.6165Z" fill="url(#paint1_linear_1_251)"/>
<path d="M19.3541 64.1578L15.9261 65.3008C15.862 65.3222 15.8062 65.3632 15.7667 65.418C15.7271 65.4728 15.7059 65.5387 15.7059 65.6063C15.7059 65.6739 15.7271 65.7398 15.7667 65.7946C15.8062 65.8494 15.862 65.8905 15.9261 65.9118L18.7441 66.8508C18.9336 66.9141 19.1058 67.0205 19.2471 67.1618C19.3884 67.3031 19.4948 67.4753 19.5581 67.6648L20.4981 70.4828C20.5195 70.5469 20.5605 70.6027 20.6153 70.6423C20.6701 70.6818 20.736 70.7031 20.8036 70.7031C20.8712 70.7031 20.9371 70.6818 20.9919 70.6423C21.0467 70.6027 21.0877 70.5469 21.1091 70.4828L22.0481 67.6658C22.1111 67.4761 22.2175 67.3036 22.3588 67.1622C22.5001 67.0207 22.6724 66.9141 22.8621 66.8508L25.6821 65.9118C25.7462 65.8905 25.802 65.8494 25.8415 65.7946C25.8811 65.7398 25.9023 65.6739 25.9023 65.6063C25.9023 65.5387 25.8811 65.4728 25.8415 65.418C25.802 65.3632 25.7462 65.3222 25.6821 65.3008L22.8631 64.3608C22.6734 64.2978 22.5009 64.1914 22.3595 64.0501C22.218 63.9088 22.1114 63.7365 22.0481 63.5468L21.1091 60.7268C21.0877 60.6627 21.0467 60.6069 20.9919 60.5674C20.9371 60.5278 20.8712 60.5066 20.8036 60.5066C20.736 60.5066 20.6701 60.5278 20.6153 60.5674C20.5605 60.6069 20.5195 60.6627 20.4981 60.7268L19.3541 64.1578Z" fill="url(#paint2_linear_1_251)"/>
<g clip-path="url(#clip0_1_251)">
<path d="M81.0169 39.1422L76.4707 33.2736L77.4736 25.9184C77.5409 25.4321 77.445 24.9372 77.2008 24.5112C76.9567 24.0852 76.5782 23.7522 76.1246 23.5644L69.2465 20.7532L66.4353 13.8751C66.2489 13.4194 65.9162 13.0386 65.4896 12.7928C65.063 12.547 64.5667 12.45 64.079 12.5172L56.726 13.5201L50.8575 8.99382C50.4687 8.693 49.9911 8.52979 49.4996 8.52979C49.0081 8.52979 48.5304 8.693 48.1417 8.99382L42.2731 13.5289L34.9202 12.5261C34.4335 12.4582 33.938 12.5539 33.5116 12.7981C33.0851 13.0422 32.7518 13.421 32.5639 13.8751L29.7527 20.7532L22.8746 23.5621C22.4189 23.7481 22.038 24.0803 21.7917 24.5065C21.5455 24.9326 21.448 25.4286 21.5145 25.9162L22.5174 33.2714L17.9933 39.1422C17.6925 39.5309 17.5293 40.0085 17.5293 40.5001C17.5293 40.9916 17.6925 41.4692 17.9933 41.8579L22.5395 47.7265L21.5367 55.0817C21.4702 55.5694 21.5677 56.0653 21.8139 56.4915C22.0601 56.9176 22.4411 57.2498 22.8968 57.4358L29.7527 60.2469L32.5639 67.1251C32.7522 67.5794 33.0852 67.9588 33.5113 68.2043C33.9374 68.4498 34.4327 68.5478 34.9202 68.4829L42.2731 67.4801L48.1417 72.0263C48.5304 72.3271 49.0081 72.4903 49.4996 72.4903C49.9911 72.4903 50.4687 72.3271 50.8575 72.0263L56.726 67.4801L64.079 68.4829C64.5663 68.5463 65.0609 68.4477 65.4867 68.2023C65.9124 67.9569 66.2458 67.5784 66.4353 67.1251L69.2465 60.2469L76.1246 57.4358C76.5803 57.2498 76.9612 56.9176 77.2074 56.4915C77.4536 56.0653 77.5512 55.5694 77.4847 55.0817L76.4818 47.7265L81.028 41.8579C81.3272 41.468 81.4885 40.9897 81.4865 40.4982C81.4845 40.0066 81.3193 39.5297 81.0169 39.1422ZM72.3926 45.7452C72.2121 45.9784 72.0798 46.2453 72.0036 46.5303C71.9274 46.8153 71.9088 47.1126 71.9489 47.4048L72.8364 53.979L66.6971 56.4884C66.4239 56.5997 66.1757 56.7644 65.9669 56.9728C65.7582 57.1811 65.593 57.4291 65.4812 57.702L62.9696 63.8458L56.3977 62.9583C56.1054 62.9161 55.8076 62.9338 55.5224 63.01C55.2371 63.0863 54.9703 63.2197 54.738 63.402L49.4996 67.4557L44.2545 63.3909C43.8651 63.0897 43.3866 62.9266 42.8944 62.9272C42.7942 62.9274 42.6941 62.934 42.5948 62.9472L36.0229 63.8347L33.5113 57.702C33.3995 57.4291 33.2343 57.1811 33.0256 56.9728C32.8168 56.7644 32.5686 56.5997 32.2954 56.4884L26.1561 53.979L27.0436 47.4048C27.0837 47.1126 27.0651 46.8153 26.9889 46.5303C26.9127 46.2453 26.7804 45.9784 26.5999 45.7452L22.5418 40.5001L26.6065 35.2549C26.7871 35.0217 26.9193 34.7548 26.9955 34.4698C27.0717 34.1849 27.0903 33.8876 27.0503 33.5953L26.1628 27.0212L32.2954 24.5118C32.5686 24.4004 32.8168 24.2358 33.0256 24.0274C33.2343 23.819 33.3995 23.5711 33.5113 23.2981L36.0229 17.1544L42.5948 18.053C42.8871 18.093 43.1844 18.0744 43.4693 17.9982C43.7543 17.922 44.0212 17.7898 44.2545 17.6092L49.4996 13.5445L54.7447 17.6092C54.978 17.7898 55.2449 17.922 55.5298 17.9982C55.8148 18.0744 56.1121 18.093 56.4043 18.053L62.9763 17.1544L65.4879 23.2981C65.5997 23.5711 65.7648 23.819 65.9736 24.0274C66.1824 24.2358 66.4306 24.4004 66.7038 24.5118L72.843 27.0212L71.9555 33.5953C71.9155 33.8876 71.9341 34.1849 72.0103 34.4698C72.0865 34.7548 72.2187 35.0217 72.3993 35.2549L76.4574 40.5001L72.3926 45.7452ZM58.9537 31.4032C59.4244 31.7563 59.7357 32.2819 59.8189 32.8644C59.9021 33.447 59.7505 34.0387 59.3974 34.5094L48.9427 48.4876C48.7394 48.7587 48.4767 48.9796 48.1748 49.1335C47.8729 49.2873 47.5398 49.37 47.201 49.3751H47.1699C46.8364 49.375 46.5072 49.2998 46.2069 49.1549C45.9065 49.0101 45.6426 48.7994 45.4348 48.5386L39.6395 41.2655C39.4472 41.0389 39.3025 40.776 39.2138 40.4923C39.1251 40.2087 39.0943 39.9101 39.1233 39.6143C39.1522 39.3185 39.2403 39.0316 39.3822 38.7705C39.5242 38.5094 39.7171 38.2795 39.9496 38.0944C40.1822 37.9093 40.4495 37.7728 40.7358 37.693C41.022 37.6132 41.3214 37.5918 41.6161 37.6299C41.9109 37.668 42.1949 37.765 42.4515 37.915C42.708 38.065 42.9318 38.265 43.1096 38.5032L47.1144 43.5287L55.8474 31.8469C56.2005 31.3762 56.7261 31.065 57.3086 30.9817C57.8912 30.8985 58.4829 31.0501 58.9537 31.4032Z" fill="white"/>
</g>
<defs>
<linearGradient id="paint0_linear_1_251" x1="7.49609" y1="13.9224" x2="23.9243" y2="13.9224" gradientUnits="userSpaceOnUse">
<stop offset="0.0729167" stop-color="#E3A455"/>
<stop offset="0.244792" stop-color="#F6DBA6"/>
<stop offset="0.434957" stop-color="#FFEBC4"/>
<stop offset="0.532623" stop-color="#F0BE79"/>
<stop offset="0.682292" stop-color="#8F653B"/>
<stop offset="0.838542" stop-color="#BA7F3B"/>
<stop offset="1" stop-color="#EEBC70"/>
</linearGradient>
<linearGradient id="paint1_linear_1_251" x1="86.9646" y1="25.0693" x2="86.9646" y2="35.2657" gradientUnits="userSpaceOnUse">
<stop offset="0.0729167" stop-color="#E3A455"/>
<stop offset="0.244792" stop-color="#F6DBA6"/>
<stop offset="0.434957" stop-color="#FFEBC4"/>
<stop offset="0.532623" stop-color="#F0BE79"/>
<stop offset="0.682292" stop-color="#8F653B"/>
<stop offset="0.838542" stop-color="#BA7F3B"/>
<stop offset="1" stop-color="#EEBC70"/>
</linearGradient>
<linearGradient id="paint2_linear_1_251" x1="25.9023" y1="65.1644" x2="15.7059" y2="65.1644" gradientUnits="userSpaceOnUse">
<stop offset="0.0729167" stop-color="#E3A455"/>
<stop offset="0.244792" stop-color="#F6DBA6"/>
<stop offset="0.434957" stop-color="#FFEBC4"/>
<stop offset="0.532623" stop-color="#F0BE79"/>
<stop offset="0.682292" stop-color="#8F653B"/>
<stop offset="0.838542" stop-color="#BA7F3B"/>
<stop offset="1" stop-color="#EEBC70"/>
</linearGradient>
<clipPath id="clip0_1_251">
<rect width="71" height="71" fill="white" transform="translate(14 5)"/>
</clipPath>
</defs>
</svg>
