<svg width="29" height="20" viewBox="0 0 29 20" fill="none" xmlns="http://www.w3.org/2000/svg">
<path d="M27.4378 3.98244C28.0329 6.06522 28.0329 10.5283 28.0329 10.5283C28.0329 10.5283 28.0329 14.9418 27.4378 17.0742C27.1402 18.2644 26.198 19.157 25.0575 19.4545C22.9251 20 14.4948 20 14.4948 20C14.4948 20 6.01492 20 3.88255 19.4545C2.74198 19.157 1.79977 18.2644 1.50223 17.0742C0.90715 14.9418 0.90715 10.5283 0.90715 10.5283C0.90715 10.5283 0.90715 6.06522 1.50223 3.98244C1.79977 2.79228 2.74198 1.85007 3.88255 1.55253C6.01492 0.957453 14.4948 0.957453 14.4948 0.957453C14.4948 0.957453 22.9251 0.957453 25.0575 1.55253C26.198 1.85007 27.1402 2.79228 27.4378 3.98244ZM11.7178 14.5451L18.7595 10.5283L11.7178 6.51153V14.5451Z" fill="black"/>
</svg>
